<svg xmlns="http://www.w3.org/2000/svg"  viewBox="0 0 100 100" width="100px" height="100px" baseProfile="basic"><path d="M42.105,76.048c-1.837,0-3.624-0.328-5.294-0.956C35.84,75.669,34.708,76,33.5,76h-10	c-0.694,0-1.362-0.109-1.989-0.312c-0.616,0.194-1.271,0.299-1.95,0.299H9.512c-3.578,0-6.494-2.91-6.5-6.488L2.945,34.513	c-0.004-1.737,0.67-3.373,1.9-4.604C6.07,28.679,7.705,28,9.445,28H19.5c3.584,0,6.5,2.916,6.5,6.5v2.53	c1.443,0.091,2.849,0.391,4.182,0.885C31.179,37.318,32.32,37,33.511,37h10.003c0.692,0,1.36,0.109,1.987,0.311	c0.637-0.205,1.31-0.312,1.999-0.312l3.5,0.002v-2.488c0-3.584,2.916-6.5,6.5-6.5h10c3.584,0,6.5,2.916,6.5,6.5v2.453l3.518,0.009	c0.676,0.002,1.329,0.107,1.942,0.302c0.65-0.214,1.337-0.325,2.04-0.325l10.005,0.008c3.582,0.004,6.495,2.92,6.495,6.5v17.493	C98,69.391,91.494,76,83.188,76h-7.052c-1.827,0-3.608-0.322-5.275-0.938C69.88,75.657,68.729,76,67.5,76h-10	c-1.206,0-2.336-0.33-3.306-0.905c-1.646,0.626-3.405,0.953-5.213,0.953H42.105z" opacity=".35"/><path fill="#f2f2f2" d="M40.105,74.048c-1.837,0-3.624-0.328-5.294-0.956C33.84,73.669,32.708,74,31.5,74h-10	c-0.694,0-1.362-0.109-1.989-0.312c-0.616,0.194-1.271,0.299-1.95,0.299H7.512c-3.578,0-6.494-2.91-6.5-6.488L0.945,32.513	c-0.004-1.737,0.67-3.373,1.9-4.604C4.07,26.679,5.705,26,7.445,26H17.5c3.584,0,6.5,2.916,6.5,6.5v2.53	c1.443,0.091,2.849,0.391,4.182,0.885C29.179,35.318,30.32,35,31.511,35h10.003c0.692,0,1.36,0.109,1.987,0.311	c0.637-0.205,1.31-0.312,1.999-0.312l3.5,0.002v-2.488c0-3.584,2.916-6.5,6.5-6.5h10c3.584,0,6.5,2.916,6.5,6.5v2.453l3.518,0.009	c0.676,0.002,1.329,0.107,1.942,0.302c0.65-0.214,1.337-0.325,2.04-0.325l10.005,0.008c3.582,0.004,6.495,2.92,6.495,6.5v17.493	C96,67.391,89.494,74,81.188,74h-7.052c-1.827,0-3.608-0.322-5.275-0.938C67.88,73.657,66.729,74,65.5,74h-10	c-1.206,0-2.336-0.33-3.306-0.905c-1.646,0.626-3.405,0.953-5.213,0.953H40.105z"/><path fill="#40396e" d="M65.5,69h-10c-0.828,0-1.5-0.672-1.5-1.5V32.513c0-0.828,0.672-1.5,1.5-1.5h10	c0.828,0,1.5,0.672,1.5,1.5V67.5C67,68.328,66.328,69,65.5,69z M57,66h7V34.013h-7V66z"/><rect width="7" height="31.987" x="57" y="34.013" fill="#96c362"/><path fill="#40396e" d="M81.188,69h-7.052C68.547,69,64,64.49,64,58.947V41.448c0-0.398,0.158-0.78,0.44-1.063	c0.281-0.28,0.662-0.438,1.06-0.438c0.001,0,0.003,0,0.004,0l10,0.026c0.827,0.002,1.496,0.673,1.496,1.5v14.473h1V41.451	c0-0.398,0.158-0.779,0.439-1.062c0.281-0.28,0.663-0.438,1.061-0.438h0.001l10,0.008C90.329,39.96,91,40.631,91,41.459v17.493	C91,64.587,86.69,69,81.188,69z M67,42.952v15.995C67,62.836,70.201,66,74.137,66h7.052C85.008,66,88,62.904,88,58.952V42.958	l-7-0.006v14.232c0,0.929-0.548,1.631-1.362,1.748c-0.07,0.01-0.141,0.015-0.212,0.015h-3.526c-0.917,0-1.899-0.701-1.899-1.745	V42.971L67,42.952z"/><path fill="#96c362" d="M81.189,66h-7.052C70.258,66,67,62.826,67,58.948V42.953l7,0.018v14.232	c0,1.058,1.018,1.745,1.9,1.745h3.526c1.058,0,1.574-0.882,1.574-1.763V42.953l7,0.005v15.995C88,62.831,85.068,66,81.189,66z"/><path fill="#40396e" d="M46.981,69.048h-6.876c-5.543,0-10.053-4.51-10.053-10.053l-0.041-17.491	c-0.001-0.398,0.157-0.781,0.438-1.063c0.282-0.282,0.664-0.44,1.062-0.44h10.003c0.829,0,1.5,0.672,1.5,1.5v14.495H44V41.499	c0-0.398,0.158-0.779,0.44-1.061c0.281-0.281,0.663-0.439,1.06-0.439h0.001l10,0.007c0.828,0.001,1.499,0.672,1.499,1.5V59	C56.746,64.664,52.346,69.048,46.981,69.048z M33.015,43l0.038,15.991c0,3.893,3.164,7.057,7.053,7.057h6.876	c3.756,0,6.84-3.126,7.021-7.115L54,43.005L47,43v14.056c0,1.105-0.767,1.939-1.782,1.939h-3.173c-1.081,0-2.03-0.906-2.03-1.939V43	H33.015z"/><path fill="#96c362" d="M46.981,66.047h-6.876c-3.879,0-7.052-3.174-7.052-7.052L33.015,43h7v14.056	c0,1.058,0.972,1.939,2.03,1.939h3.174c1.058,0,1.782-0.882,1.782-1.939V43l7,0.005V59C53.824,62.879,50.86,66.047,46.981,66.047z"/><path fill="#96c362" d="M22,67V51.896c0-0.51-0.327-0.776-0.649-0.776h-3.526c-0.521,0-0.763,0.455-0.763,0.763v15.105h-9.05	L7.946,33H17v9h6.052C27.435,42,31,45.647,31,50.132V67H22z"/><path fill="#40396e" d="M31.5,69h-10c-0.829,0-1.5-0.672-1.5-1.5V53.119h-0.939v14.368c0,0.828-0.671,1.5-1.5,1.5H7.512	c-0.827,0-1.499-0.67-1.5-1.497L5.945,32.503c-0.001-0.398,0.157-0.78,0.438-1.063C6.665,31.158,7.046,31,7.445,31H17.5	c0.829,0,1.5,0.672,1.5,1.5V40h4.052C28.538,40,33,44.545,33,50.132V67.5C33,68.328,32.329,69,31.5,69z M23,66h7V50.132	C30,46.199,26.883,43,23.052,43H17.5c-0.829,0-1.5-0.672-1.5-1.5V34H8.948l0.061,31.987h7.052V51.882	c0-0.848,0.674-1.763,1.763-1.763h3.526c0.94,0,1.649,0.764,1.649,1.776V66z"/><path fill="#96c362" d="M23.052,43H16v-9H8.948l0.061,31.987h7.052V51.882c0-0.882,0.705-1.763,1.763-1.763h3.526	c0.882,0,1.65,0.718,1.65,1.776V66h7V50.132C30,46.253,26.931,43,23.052,43z"/></svg>