<?xml version="1.0" encoding="UTF-8" standalone="no" ?>
<!DOCTYPE svg PUBLIC "-//W3C//DTD SVG 1.1//EN" "http://www.w3.org/Graphics/SVG/1.1/DTD/svg11.dtd">
<svg xmlns="http://www.w3.org/2000/svg"
	xmlns:xlink="http://www.w3.org/1999/xlink" version="1.1" width="200" height="100" viewBox="0 0 200 100" xml:space="preserve">
	<desc>Created with Fabric.js 5.2.4</desc>
	<defs>
	</defs>
	<g transform="matrix(1 0 0 1 100 50)" id="1b36c2cd-63bc-47a9-8b66-92f6ba66eefe">
		<rect style="stroke: none; stroke-width: 1; stroke-dasharray: none; stroke-linecap: butt; stroke-dashoffset: 0; stroke-linejoin: miter; stroke-miterlimit: 4; fill: rgb(255,255,255); fill-rule: nonzero; opacity: 1; visibility: hidden;" vector-effect="non-scaling-stroke" x="-100" y="-50" rx="0" ry="0" width="200" height="100" />
	</g>
	<g transform="matrix(Infinity NaN NaN Infinity 0 0)" id="47d61caa-d53e-4134-924f-44c40277d177">
	</g>
	<g transform="matrix(0.65 0 0 0.65 100 50)">
		<g style="" vector-effect="non-scaling-stroke">
			<g transform="matrix(3 0 0 3 3 3)">
				<path style="stroke: none; stroke-width: 1; stroke-dasharray: none; stroke-linecap: butt; stroke-dashoffset: 0; stroke-linejoin: miter; stroke-miterlimit: 4; fill: rgb(0,0,0); fill-rule: nonzero; opacity: 0.35;" vector-effect="non-scaling-stroke" transform=" translate(-50.47, -52.02)" d="M 42.105 76.048 C 40.267999999999994 76.048 38.480999999999995 75.72 36.811 75.092 C 35.84 75.669 34.708 76 33.5 76 L 23.5 76 C 22.806 76 22.137999999999998 75.891 21.511 75.688 C 20.895 75.882 20.24 75.98700000000001 19.561 75.98700000000001 L 9.512 75.98700000000001 C 5.934000000000001 75.98700000000001 3.0180000000000007 73.07700000000001 3.0120000000000005 69.49900000000001 L 2.945 34.513 C 2.941 32.775999999999996 3.6149999999999998 31.139999999999997 4.845 29.909 C 6.07 28.679 7.705 28 9.445 28 L 19.5 28 C 23.084 28 26 30.916 26 34.5 L 26 37.03 C 27.443 37.121 28.849 37.421 30.182000000000002 37.915 C 31.179 37.318 32.32 37 33.511 37 L 43.514 37 C 44.206 37 44.874 37.109 45.501000000000005 37.311 C 46.138000000000005 37.106 46.81100000000001 36.999 47.50000000000001 36.999 L 51.00000000000001 37.001000000000005 L 51.00000000000001 34.513000000000005 C 51.00000000000001 30.929000000000006 53.916000000000004 28.013000000000005 57.50000000000001 28.013000000000005 L 67.5 28.013000000000005 C 71.084 28.013000000000005 74 30.929000000000006 74 34.513000000000005 L 74 36.96600000000001 L 77.518 36.97500000000001 C 78.194 36.97700000000001 78.847 37.08200000000001 79.46 37.27700000000001 C 80.11 37.06300000000001 80.797 36.952000000000005 81.5 36.952000000000005 L 91.505 36.96000000000001 C 95.08699999999999 36.964000000000006 98 39.88000000000001 98 43.46000000000001 L 98 60.953 C 98 69.391 91.494 76 83.188 76 L 76.136 76 C 74.309 76 72.52799999999999 75.678 70.86099999999999 75.062 C 69.88 75.657 68.729 76 67.5 76 L 57.5 76 C 56.294 76 55.164 75.67 54.194 75.095 C 52.548 75.721 50.789 76.048 48.981 76.048 L 42.105 76.048 z" stroke-linecap="round" />
			</g>
			<g transform="matrix(3 0 0 3 -3 -3)">
				<path style="stroke: none; stroke-width: 1; stroke-dasharray: none; stroke-linecap: butt; stroke-dashoffset: 0; stroke-linejoin: miter; stroke-miterlimit: 4; fill: rgb(242,242,242); fill-rule: nonzero; opacity: 1;" vector-effect="non-scaling-stroke" transform=" translate(-48.47, -50.02)" d="M 40.105 74.048 C 38.267999999999994 74.048 36.480999999999995 73.72 34.811 73.092 C 33.84 73.669 32.708 74 31.5 74 L 21.5 74 C 20.806 74 20.137999999999998 73.891 19.511 73.688 C 18.895 73.882 18.24 73.98700000000001 17.561 73.98700000000001 L 7.512 73.98700000000001 C 3.9339999999999997 73.98700000000001 1.0179999999999998 71.07700000000001 1.0119999999999996 67.49900000000001 L 0.945 32.513 C 0.941 30.775999999999996 1.615 29.139999999999997 2.8449999999999998 27.909 C 4.07 26.679 5.705 26 7.445 26 L 17.5 26 C 21.084 26 24 28.916 24 32.5 L 24 35.03 C 25.443 35.121 26.849 35.421 28.182000000000002 35.915 C 29.179 35.318 30.32 35 31.511 35 L 41.513999999999996 35 C 42.205999999999996 35 42.873999999999995 35.109 43.501 35.311 C 44.138 35.106 44.811 34.999 45.5 34.999 L 49 35.001000000000005 L 49 32.513000000000005 C 49 28.929000000000006 51.916 26.013000000000005 55.5 26.013000000000005 L 65.5 26.013000000000005 C 69.084 26.013000000000005 72 28.929000000000006 72 32.513000000000005 L 72 34.96600000000001 L 75.518 34.97500000000001 C 76.194 34.97700000000001 76.847 35.08200000000001 77.46 35.27700000000001 C 78.11 35.06300000000001 78.797 34.952000000000005 79.5 34.952000000000005 L 89.505 34.96000000000001 C 93.08699999999999 34.964000000000006 96 37.88000000000001 96 41.46000000000001 L 96 58.953 C 96 67.391 89.494 74 81.188 74 L 74.136 74 C 72.309 74 70.52799999999999 73.678 68.86099999999999 73.062 C 67.88 73.657 66.729 74 65.5 74 L 55.5 74 C 54.294 74 53.164 73.67 52.194 73.095 C 50.548 73.721 48.789 74.048 46.981 74.048 L 40.105 74.048 z" stroke-linecap="round" />
			</g>
			<g transform="matrix(3 0 0 3 33.08 -3.05)">
				<path style="stroke: none; stroke-width: 1; stroke-dasharray: none; stroke-linecap: butt; stroke-dashoffset: 0; stroke-linejoin: miter; stroke-miterlimit: 4; fill: rgb(64,57,110); fill-rule: nonzero; opacity: 1;" vector-effect="non-scaling-stroke" transform=" translate(-60.5, -50.01)" d="M 65.5 69 L 55.5 69 C 54.672 69 54 68.328 54 67.5 L 54 32.513 C 54 31.685 54.672 31.012999999999998 55.5 31.012999999999998 L 65.5 31.012999999999998 C 66.328 31.012999999999998 67 31.685 67 32.513 L 67 67.5 C 67 68.328 66.328 69 65.5 69 z M 57 66 L 64 66 L 64 34.013 L 57 34.013 L 57 66 z" stroke-linecap="round" />
			</g>
			<g transform="matrix(3 0 0 3 33.08 -3.05)">
				<rect style="stroke: none; stroke-width: 1; stroke-dasharray: none; stroke-linecap: butt; stroke-dashoffset: 0; stroke-linejoin: miter; stroke-miterlimit: 4; fill: rgb(150,195,98); fill-rule: nonzero; opacity: 1;" vector-effect="non-scaling-stroke" x="-3.5" y="-15.9935" rx="0" ry="0" width="7" height="31.987" />
			</g>
			<g transform="matrix(3 0 0 3 84.08 10.35)">
				<path style="stroke: none; stroke-width: 1; stroke-dasharray: none; stroke-linecap: butt; stroke-dashoffset: 0; stroke-linejoin: miter; stroke-miterlimit: 4; fill: rgb(64,57,110); fill-rule: nonzero; opacity: 1;" vector-effect="non-scaling-stroke" transform=" translate(-77.5, -54.47)" d="M 81.188 69 L 74.136 69 C 68.547 69 64 64.49 64 58.947 L 64 41.448 C 64 41.05 64.158 40.668 64.44 40.385 C 64.721 40.105 65.102 39.946999999999996 65.5 39.946999999999996 C 65.501 39.946999999999996 65.503 39.946999999999996 65.504 39.946999999999996 L 75.504 39.973 C 76.331 39.975 77 40.646 77 41.473 L 77 55.946 L 78 55.946 L 78 41.451 C 78 41.053 78.158 40.672 78.439 40.389 C 78.72 40.109 79.10199999999999 39.951 79.5 39.951 L 79.501 39.951 L 89.501 39.959 C 90.329 39.96 91 40.631 91 41.459 L 91 58.952 C 91 64.587 86.69 69 81.188 69 z M 67 42.952 L 67 58.946999999999996 C 67 62.836 70.201 66 74.137 66 L 81.189 66 C 85.008 66 88 62.904 88 58.952 L 88 42.958 L 81 42.952 L 81 57.184 C 81 58.113 80.452 58.815 79.638 58.931999999999995 C 79.56800000000001 58.94199999999999 79.497 58.946999999999996 79.426 58.946999999999996 L 75.9 58.946999999999996 C 74.983 58.946999999999996 74.001 58.245999999999995 74.001 57.202 L 74.001 42.971 L 67 42.952 z" stroke-linecap="round" />
			</g>
			<g transform="matrix(3 0 0 3 84.08 10.36)">
				<path style="stroke: none; stroke-width: 1; stroke-dasharray: none; stroke-linecap: butt; stroke-dashoffset: 0; stroke-linejoin: miter; stroke-miterlimit: 4; fill: rgb(150,195,98); fill-rule: nonzero; opacity: 1;" vector-effect="non-scaling-stroke" transform=" translate(-77.5, -54.48)" d="M 81.189 66 L 74.137 66 C 70.258 66 67 62.826 67 58.948 L 67 42.953 L 74 42.971000000000004 L 74 57.203 C 74 58.261 75.018 58.948 75.9 58.948 L 79.426 58.948 C 80.48400000000001 58.948 81 58.066 81 57.185 L 81 42.953 L 88 42.958000000000006 L 88 58.953 C 88 62.831 85.068 66 81.189 66 z" stroke-linecap="round" />
			</g>
			<g transform="matrix(3 0 0 3 -17.9 10.5)">
				<path style="stroke: none; stroke-width: 1; stroke-dasharray: none; stroke-linecap: butt; stroke-dashoffset: 0; stroke-linejoin: miter; stroke-miterlimit: 4; fill: rgb(64,57,110); fill-rule: nonzero; opacity: 1;" vector-effect="non-scaling-stroke" transform=" translate(-43.51, -54.52)" d="M 46.981 69.048 L 40.105000000000004 69.048 C 34.562000000000005 69.048 30.052000000000003 64.538 30.052000000000003 58.995000000000005 L 30.011000000000003 41.504000000000005 C 30.01 41.106 30.168000000000003 40.723000000000006 30.449 40.441 C 30.731 40.159000000000006 31.113000000000003 40.001000000000005 31.511000000000003 40.001000000000005 L 41.514 40.001000000000005 C 42.343 40.001000000000005 43.014 40.673 43.014 41.501000000000005 L 43.014 55.996 L 44 55.996 L 44 41.499 C 44 41.101 44.158 40.72 44.44 40.438 C 44.721 40.157000000000004 45.102999999999994 39.999 45.5 39.999 L 45.501 39.999 L 55.501 40.006 C 56.329 40.007 57 40.678 57 41.506 L 57 59 C 56.746 64.664 52.346 69.048 46.981 69.048 z M 33.015 43 L 33.053 58.991 C 33.053 62.884 36.217 66.048 40.105999999999995 66.048 L 46.98199999999999 66.048 C 50.73799999999999 66.048 53.82199999999999 62.922000000000004 54.00299999999999 58.933 L 54 43.005 L 47 43 L 47 57.056 C 47 58.160999999999994 46.233 58.995 45.218 58.995 L 42.045 58.995 C 40.964 58.995 40.015 58.089 40.015 57.056 L 40.015 43 L 33.015 43 z" stroke-linecap="round" />
			</g>
			<g transform="matrix(3 0 0 3 -17.89 10.5)">
				<path style="stroke: none; stroke-width: 1; stroke-dasharray: none; stroke-linecap: butt; stroke-dashoffset: 0; stroke-linejoin: miter; stroke-miterlimit: 4; fill: rgb(150,195,98); fill-rule: nonzero; opacity: 1;" vector-effect="non-scaling-stroke" transform=" translate(-43.51, -54.52)" d="M 46.981 66.047 L 40.105000000000004 66.047 C 36.226000000000006 66.047 33.053000000000004 62.873 33.053000000000004 58.995 L 33.015 43 L 40.015 43 L 40.015 57.056 C 40.015 58.114 40.987 58.995 42.045 58.995 L 45.219 58.995 C 46.277 58.995 47.001000000000005 58.113 47.001000000000005 57.056 L 47.001000000000005 43 L 54.001000000000005 43.005 L 54.001000000000005 59 C 53.824 62.879 50.86 66.047 46.981 66.047 z" stroke-linecap="round" />
			</g>
			<g transform="matrix(3 0 0 3 -90 -3.07)">
				<path style="stroke: none; stroke-width: 1; stroke-dasharray: none; stroke-linecap: butt; stroke-dashoffset: 0; stroke-linejoin: miter; stroke-miterlimit: 4; fill: rgb(150,195,98); fill-rule: nonzero; opacity: 1;" vector-effect="non-scaling-stroke" transform=" translate(-19.47, -50)" d="M 22 67 L 22 51.896 C 22 51.386 21.673 51.12 21.351 51.12 L 17.825 51.12 C 17.304 51.12 17.061999999999998 51.574999999999996 17.061999999999998 51.882999999999996 L 17.061999999999998 66.988 L 8.011999999999997 66.988 L 7.946 33 L 17 33 L 17 42 L 23.052 42 C 27.435 42 31 45.647 31 50.132 L 31 67 L 22 67 z" stroke-linecap="round" />
			</g>
			<g transform="matrix(3 0 0 3 -90 -3.07)">
				<path style="stroke: none; stroke-width: 1; stroke-dasharray: none; stroke-linecap: butt; stroke-dashoffset: 0; stroke-linejoin: miter; stroke-miterlimit: 4; fill: rgb(64,57,110); fill-rule: nonzero; opacity: 1;" vector-effect="non-scaling-stroke" transform=" translate(-19.47, -50)" d="M 31.5 69 L 21.5 69 C 20.671 69 20 68.328 20 67.5 L 20 53.119 L 19.061 53.119 L 19.061 67.487 C 19.061 68.315 18.39 68.987 17.561 68.987 L 7.512 68.987 C 6.685 68.987 6.013 68.317 6.012 67.49 L 5.945 32.503 C 5.944 32.105 6.102 31.723 6.383 31.44 C 6.665 31.158 7.046 31 7.445 31 L 17.5 31 C 18.329 31 19 31.672 19 32.5 L 19 40 L 23.052 40 C 28.538 40 33 44.545 33 50.132 L 33 67.5 C 33 68.328 32.329 69 31.5 69 z M 23 66 L 30 66 L 30 50.132 C 30 46.199 26.883 43 23.052 43 L 17.5 43 C 16.671 43 16 42.328 16 41.5 L 16 34 L 8.948 34 L 9.009 65.987 L 16.061 65.987 L 16.061 51.882 C 16.061 51.034 16.735 50.119 17.823999999999998 50.119 L 21.349999999999998 50.119 C 22.29 50.119 22.999 50.883 22.999 51.895 L 22.999 66 z" stroke-linecap="round" />
			</g>
			<g transform="matrix(3 0 0 3 -90 -3.07)">
				<path style="stroke: none; stroke-width: 1; stroke-dasharray: none; stroke-linecap: butt; stroke-dashoffset: 0; stroke-linejoin: miter; stroke-miterlimit: 4; fill: rgb(150,195,98); fill-rule: nonzero; opacity: 1;" vector-effect="non-scaling-stroke" transform=" translate(-19.47, -50)" d="M 23.052 43 L 16 43 L 16 34 L 8.948 34 L 9.009 65.987 L 16.061 65.987 L 16.061 51.882 C 16.061 51 16.766 50.119 17.823999999999998 50.119 L 21.349999999999998 50.119 C 22.232 50.119 22.999999999999996 50.837 22.999999999999996 51.895 L 22.999999999999996 66 L 29.999999999999996 66 L 29.999999999999996 50.132 C 30 46.253 26.931 43 23.052 43 z" stroke-linecap="round" />
			</g>
		</g>
	</g>
</svg>